<?xml version="1.0" encoding="utf-8"?>
<!-- Generator: Adobe Illustrator 16.0.0, SVG Export Plug-In . SVG Version: 6.00 Build 0)  -->
<!DOCTYPE svg PUBLIC "-//W3C//DTD SVG 1.1//EN" "http://www.w3.org/Graphics/SVG/1.1/DTD/svg11.dtd">
<svg version="1.1" id="Capa_1" xmlns="http://www.w3.org/2000/svg" xmlns:xlink="http://www.w3.org/1999/xlink" x="0px" y="0px"
	 width="18px" height="18px" viewBox="0 0 18 18" enable-background="new 0 0 18 18" xml:space="preserve">
<g>
	<path fill="#ff6859" d="M8.635,13.406c0.096,0.095,0.225,0.146,0.363,0.146c0.137,0,0.266-0.052,0.367-0.148l3.777-3.783
		c0.099-0.1,0.153-0.228,0.153-0.365c0-0.137-0.055-0.267-0.151-0.364c-0.192-0.2-0.535-0.198-0.725-0.001l-2.907,2.902V1.918
		C9.513,1.633,9.283,1.4,9,1.4c-0.285,0-0.518,0.233-0.518,0.518v9.875l-2.9-2.902c-0.197-0.199-0.541-0.197-0.729,0
		C4.753,8.989,4.699,9.119,4.699,9.256c0,0.137,0.054,0.267,0.153,0.365L8.635,13.406z"/>
	<path fill="#ff6859" d="M16.501,11.817c-0.286,0-0.512,0.224-0.512,0.511v3.641H2.011v-3.641c0-0.281-0.232-0.511-0.518-0.511
		c-0.287,0-0.512,0.224-0.512,0.511v4.151c0,0.286,0.229,0.519,0.512,0.519h15.008c0.286,0,0.519-0.232,0.519-0.519v-4.151
		C17.02,12.047,16.787,11.817,16.501,11.817z"/>
</g>
</svg>
