<?xml version="1.0" encoding="utf-8"?>
<!-- Generator: Adobe Illustrator 16.0.0, SVG Export Plug-In . SVG Version: 6.00 Build 0)  -->
<!DOCTYPE svg PUBLIC "-//W3C//DTD SVG 1.1//EN" "http://www.w3.org/Graphics/SVG/1.1/DTD/svg11.dtd">
<svg version="1.1" id="Capa_1" xmlns="http://www.w3.org/2000/svg" xmlns:xlink="http://www.w3.org/1999/xlink" x="0px" y="0px"
	 width="18px" height="18px" viewBox="0 0 18 18" enable-background="new 0 0 18 18" xml:space="preserve">
<g>
	<path fill="#ff6859" d="M11.188,2.655L10.588,2.49c-0.084-0.025-0.129-0.017-0.195,0.02c-0.063,0.037-0.104,0.091-0.127,0.162
		L6.618,15.303c-0.022,0.073-0.016,0.139,0.019,0.201c0.036,0.063,0.09,0.106,0.164,0.128l0.598,0.165
		c0.033,0.011,0.059,0.016,0.084,0.016c0.048,0,0.083-0.019,0.113-0.034c0.063-0.038,0.104-0.09,0.126-0.161l3.648-12.632
		c0.023-0.072,0.017-0.138-0.018-0.202C11.317,2.719,11.264,2.678,11.188,2.655z"/>
	<path fill="#ff6859" d="M5.685,5.073c0-0.072-0.028-0.135-0.083-0.188L5.113,4.396c-0.11-0.112-0.266-0.112-0.378-0.001
		l-4.56,4.561C0.119,9.011,0.092,9.072,0.092,9.143c0,0.072,0.027,0.134,0.082,0.188l4.561,4.562
		c0.056,0.055,0.12,0.084,0.188,0.084c0.068,0,0.133-0.029,0.189-0.085l0.489-0.489c0.056-0.056,0.083-0.118,0.083-0.189
		c0-0.07-0.028-0.134-0.083-0.188L1.719,9.143l3.882-3.881C5.656,5.207,5.685,5.144,5.685,5.073z"/>
	<path fill="#ff6859" d="M17.814,8.955l-4.56-4.561c-0.108-0.11-0.266-0.11-0.378,0l-0.489,0.489
		c-0.054,0.055-0.082,0.118-0.082,0.189c0,0.071,0.027,0.133,0.082,0.188l3.883,3.882l-3.883,3.883
		c-0.054,0.055-0.082,0.118-0.082,0.188c0,0.071,0.027,0.134,0.082,0.188l0.491,0.49c0.055,0.055,0.12,0.084,0.188,0.084
		c0.069,0,0.133-0.029,0.188-0.084l4.56-4.561c0.057-0.055,0.084-0.117,0.084-0.189C17.897,9.071,17.87,9.01,17.814,8.955z"/>
</g>
</svg>
