<?xml version="1.0" encoding="utf-8"?>
<!-- Generator: Adobe Illustrator 16.0.0, SVG Export Plug-In . SVG Version: 6.00 Build 0)  -->
<!DOCTYPE svg PUBLIC "-//W3C//DTD SVG 1.1//EN" "http://www.w3.org/Graphics/SVG/1.1/DTD/svg11.dtd">
<svg version="1.1" id="Capa_1" xmlns="http://www.w3.org/2000/svg" xmlns:xlink="http://www.w3.org/1999/xlink" x="0px" y="0px"
	 width="18px" height="18px" viewBox="0 0 18 18" enable-background="new 0 0 18 18" xml:space="preserve">
<g>
	<path fill="#ff6859" d="M16.709,1.291c-0.81-0.809-1.887-1.255-3.035-1.255c-1.147,0-2.226,0.446-3.035,1.255L7.674,4.255
		c-0.14,0.141-0.218,0.328-0.218,0.526c0,0.2,0.078,0.386,0.218,0.526c0.281,0.281,0.772,0.281,1.053,0l2.965-2.964
		c0.526-0.526,1.23-0.816,1.981-0.816c0.752,0,1.456,0.29,1.982,0.816c0.527,0.526,0.817,1.231,0.817,1.982
		c0,0.752-0.29,1.456-0.817,1.982l-3.877,3.877c-0.528,0.529-1.232,0.82-1.982,0.82c-0.75,0-1.454-0.292-1.982-0.82
		c-0.28-0.28-0.771-0.281-1.053,0c-0.14,0.141-0.218,0.328-0.218,0.526c0,0.199,0.078,0.386,0.218,0.527
		c0.81,0.809,1.888,1.254,3.035,1.254s2.226-0.445,3.035-1.254l3.877-3.877c0.808-0.808,1.253-1.885,1.253-3.035
		C17.962,3.176,17.517,2.099,16.709,1.291z"/>
	<path fill="#ff6859" d="M8.815,13.15l-2.509,2.508c-0.526,0.526-1.23,0.817-1.982,0.817c-0.752,0-1.456-0.291-1.982-0.817
		c-1.094-1.093-1.094-2.872,0-3.965L5.99,8.044c0.527-0.527,1.231-0.816,1.982-0.816c0.751,0,1.455,0.29,1.982,0.816
		c0.281,0.281,0.771,0.281,1.053,0c0.141-0.141,0.218-0.328,0.218-0.526s-0.078-0.386-0.218-0.526
		C10.198,6.183,9.12,5.737,7.973,5.737c-1.147,0-2.226,0.446-3.035,1.255l-3.649,3.649c-0.808,0.809-1.253,1.886-1.253,3.035
		s0.445,2.227,1.253,3.034c0.808,0.808,1.885,1.253,3.035,1.253c1.149,0,2.228-0.445,3.035-1.253l2.509-2.508
		c0.141-0.141,0.218-0.328,0.218-0.527c0-0.199-0.078-0.385-0.218-0.525C9.584,12.868,9.095,12.869,8.815,13.15z"/>
</g>
</svg>
