<?xml version="1.0" encoding="utf-8"?>
<!-- Generator: Adobe Illustrator 16.0.0, SVG Export Plug-In . SVG Version: 6.00 Build 0)  -->
<!DOCTYPE svg PUBLIC "-//W3C//DTD SVG 1.1//EN" "http://www.w3.org/Graphics/SVG/1.1/DTD/svg11.dtd">
<svg version="1.1" id="Capa_1" xmlns="http://www.w3.org/2000/svg" xmlns:xlink="http://www.w3.org/1999/xlink" x="0px" y="0px"
	 width="18px" height="18px" viewBox="0 0 18 18" enable-background="new 0 0 18 18" xml:space="preserve">
<path fill="#ff6859" d="M13.701,5.277c-0.271,0-0.534,0.068-0.767,0.198c-0.248-0.565-0.809-0.939-1.442-0.943
	c-0.267,0-0.527,0.068-0.76,0.198c-0.248-0.566-0.81-0.94-1.436-0.943c-0.22,0-0.435,0.045-0.631,0.132l0.01-2.24
	c0.003-0.865-0.698-1.573-1.57-1.577c-0.862,0-1.566,0.702-1.57,1.564l-0.038,8.431L3.623,9.149C3.305,8.989,2.95,8.903,2.589,8.901
	c-0.826,0-1.501,0.674-1.505,1.502c-0.002,0.401,0.153,0.78,0.437,1.065l4.73,4.775c1.087,1.099,2.538,1.708,4.086,1.714h0.023
	c0,0,0,0,0,0c2.677,0,4.865-2.178,4.877-4.855l0.029-6.249C15.27,5.99,14.569,5.282,13.701,5.277z M2.587,9.837v-0.1l0,0l0.003,0.1
	C2.8,9.839,3.012,9.89,3.202,9.984l2.548,1.29c0.143,0.069,0.319,0.062,0.455-0.021c0.139-0.086,0.222-0.235,0.222-0.397
	l0.042-9.187c0.002-0.349,0.286-0.632,0.638-0.632c0.35,0.001,0.634,0.288,0.632,0.638L7.707,8.658c0,0.125,0.048,0.242,0.136,0.331
	s0.205,0.138,0.332,0.139c0.257,0,0.467-0.208,0.468-0.465l0.015-3.309c0.001-0.348,0.286-0.631,0.638-0.631
	C9.645,4.724,9.929,5.01,9.928,5.36L9.912,8.667c-0.002,0.257,0.207,0.468,0.469,0.47c0.256,0,0.465-0.208,0.466-0.464L10.859,6.1
	c0.001-0.349,0.287-0.632,0.638-0.632c0.169,0,0.328,0.067,0.448,0.188s0.185,0.28,0.184,0.449l-0.012,2.574
	c0,0.256,0.208,0.467,0.466,0.469c0.257,0,0.468-0.208,0.47-0.465l0.008-1.838c0.002-0.349,0.287-0.632,0.639-0.632
	c0.169,0,0.329,0.067,0.448,0.188c0.119,0.121,0.185,0.281,0.183,0.45l-0.028,6.248c-0.01,2.164-1.778,3.924-3.962,3.924
	c-1.297-0.005-2.513-0.516-3.425-1.438l-4.731-4.774c-0.108-0.109-0.167-0.253-0.166-0.407C2.02,10.091,2.275,9.837,2.587,9.837z
	 M10.359,17.856L10.359,17.856l0,0.002L10.359,17.856z"/>
</svg>
