<?xml version="1.0" encoding="utf-8"?>
<!-- Generator: Adobe Illustrator 16.0.0, SVG Export Plug-In . SVG Version: 6.00 Build 0)  -->
<!DOCTYPE svg PUBLIC "-//W3C//DTD SVG 1.1//EN" "http://www.w3.org/Graphics/SVG/1.1/DTD/svg11.dtd">
<svg version="1.1" id="Capa_1" xmlns="http://www.w3.org/2000/svg" xmlns:xlink="http://www.w3.org/1999/xlink" x="0px" y="0px"
	 width="18px" height="18px" viewBox="0 0 18 18" enable-background="new 0 0 18 18" xml:space="preserve">
<g>
	<rect x="3.561" y="10.107" fill="#ff6859" width="10.649" height="1.068"/>
	<rect x="3.561" y="6.914" fill="#ff6859" width="10.649" height="1.067"/>
	<path fill="#ff6859" d="M16.029,0.176H1.74c-0.758,0-1.374,0.598-1.374,1.333v11.978c0,0.734,0.616,1.332,1.374,1.332h6.08
		l2.237,2.981c0.199,0.268,0.651,0.268,0.854,0l2.233-2.981h2.886c0.76,0,1.376-0.598,1.376-1.332V1.509
		C17.403,0.774,16.786,0.176,16.029,0.176z M16.295,13.75h-3.417c-0.166,0-0.327,0.081-0.427,0.214l-1.97,2.627l-1.969-2.625
		c-0.1-0.137-0.26-0.216-0.427-0.216H1.432L1.476,1.244h14.862L16.295,13.75z"/>
	<rect x="3.561" y="3.72" fill="#ff6859" width="10.649" height="1.067"/>
</g>
</svg>
