<?xml version="1.0" encoding="utf-8"?>
<!-- Generator: Adobe Illustrator 16.0.0, SVG Export Plug-In . SVG Version: 6.00 Build 0)  -->
<!DOCTYPE svg PUBLIC "-//W3C//DTD SVG 1.1//EN" "http://www.w3.org/Graphics/SVG/1.1/DTD/svg11.dtd">
<svg version="1.1" id="Capa_1" xmlns="http://www.w3.org/2000/svg" xmlns:xlink="http://www.w3.org/1999/xlink" x="0px" y="0px"
	 width="12px" height="15.113px" viewBox="0 0 12 15.113" enable-background="new 0 0 12 15.113" xml:space="preserve">
<g>
	<g>
		<path fill="#ff6859" d="M11.583,3.928H2.378c-0.853,0-1.55-0.694-1.55-1.55c0-0.853,0.694-1.55,1.55-1.55h9.208
			c0.23,0,0.414-0.187,0.414-0.414C12,0.184,11.813,0,11.586,0H2.378C1.068,0,0,1.068,0,2.378v10.356
			c0,1.311,1.068,2.378,2.378,2.378h9.208c0.23,0,0.414-0.187,0.414-0.414V4.342C11.997,4.115,11.813,3.928,11.583,3.928z
			 M11.169,14.285H2.378c-0.853,0-1.55-0.694-1.55-1.55V4.184C1.245,4.542,1.787,4.76,2.378,4.76h8.791V14.285L11.169,14.285z"/>
		<path fill="#ff6859" d="M2.509,2.001c-0.23,0-0.414,0.187-0.414,0.414S2.282,2.83,2.509,2.83h7.776
			c0.23,0,0.414-0.187,0.414-0.414s-0.187-0.414-0.414-0.414H2.509z"/>
	</g>
</g>
</svg>
