<?xml version="1.0" encoding="utf-8"?>
<!-- Generator: Adobe Illustrator 16.0.0, SVG Export Plug-In . SVG Version: 6.00 Build 0)  -->
<!DOCTYPE svg PUBLIC "-//W3C//DTD SVG 1.1//EN" "http://www.w3.org/Graphics/SVG/1.1/DTD/svg11.dtd">
<svg version="1.1" id="Capa_1" xmlns="http://www.w3.org/2000/svg" xmlns:xlink="http://www.w3.org/1999/xlink" x="0px" y="0px"
	 width="18px" height="18px" viewBox="0 0 18 18" enable-background="new 0 0 18 18" xml:space="preserve">
<g>
	<g>
		<g>
			<path fill="#ff6859" d="M16.714,7.419c-0.319-0.048-0.645-0.093-0.973-0.136c-0.038-0.005-0.07-0.032-0.08-0.069
				c-0.151-0.546-0.369-1.074-0.649-1.567c-0.02-0.033-0.018-0.075,0.009-0.107c0.199-0.261,0.397-0.524,0.59-0.783
				c0.26-0.351,0.222-0.846-0.088-1.156l-1.069-1.07c-0.31-0.31-0.805-0.348-1.155-0.088c-0.26,0.191-0.523,0.39-0.784,0.591
				c-0.031,0.023-0.073,0.028-0.106,0.009c-0.493-0.28-1.021-0.499-1.566-0.65c-0.037-0.009-0.063-0.042-0.07-0.082
				c-0.041-0.327-0.088-0.653-0.135-0.971c-0.064-0.431-0.442-0.756-0.879-0.756H8.242c-0.435,0-0.813,0.325-0.878,0.756
				C7.316,1.66,7.271,1.986,7.229,2.313C7.224,2.353,7.196,2.385,7.16,2.395c-0.546,0.151-1.074,0.37-1.567,0.65
				C5.56,3.064,5.517,3.059,5.485,3.036c-0.261-0.201-0.525-0.4-0.783-0.592C4.352,2.185,3.855,2.223,3.547,2.532l-1.07,1.07
				c-0.31,0.31-0.348,0.805-0.088,1.156C2.581,5.017,2.78,5.28,2.98,5.541c0.024,0.032,0.029,0.074,0.009,0.107
				c-0.28,0.494-0.499,1.021-0.65,1.567C2.33,7.251,2.298,7.278,2.258,7.284C1.932,7.326,1.605,7.372,1.287,7.419
				C0.856,7.484,0.531,7.861,0.531,8.298v1.515c0,0.436,0.325,0.814,0.755,0.879c0.318,0.047,0.646,0.094,0.971,0.135
				c0.04,0.006,0.072,0.033,0.082,0.07c0.151,0.545,0.37,1.072,0.65,1.564c0.02,0.035,0.015,0.076-0.009,0.107
				c-0.2,0.262-0.399,0.525-0.591,0.785c-0.259,0.35-0.221,0.846,0.088,1.154l1.07,1.07c0.31,0.309,0.805,0.348,1.156,0.088
				c0.258-0.191,0.521-0.391,0.783-0.59c0.032-0.027,0.074-0.029,0.107-0.01c0.494,0.281,1.021,0.498,1.567,0.65
				c0.037,0.01,0.064,0.041,0.069,0.08c0.042,0.328,0.088,0.654,0.136,0.973c0.065,0.432,0.443,0.754,0.878,0.754h1.515
				c0.437,0,0.814-0.322,0.879-0.754c0.047-0.32,0.094-0.645,0.135-0.973c0.007-0.039,0.033-0.07,0.07-0.08
				c0.545-0.152,1.073-0.369,1.566-0.65c0.033-0.02,0.075-0.018,0.106,0.01c0.261,0.199,0.524,0.398,0.784,0.59
				c0.351,0.26,0.846,0.221,1.155-0.088l1.069-1.07c0.31-0.309,0.348-0.805,0.088-1.156c-0.192-0.258-0.391-0.523-0.59-0.783
				c-0.026-0.031-0.028-0.072-0.009-0.107c0.28-0.492,0.498-1.02,0.649-1.566c0.01-0.035,0.042-0.063,0.08-0.07
				c0.328-0.039,0.653-0.086,0.973-0.133c0.432-0.064,0.755-0.443,0.755-0.879V8.298C17.469,7.861,17.146,7.484,16.714,7.419z
				 M16.678,9.813c0,0.047-0.035,0.09-0.08,0.096c-0.313,0.047-0.635,0.094-0.96,0.135c-0.353,0.047-0.646,0.297-0.741,0.643
				c-0.131,0.484-0.326,0.951-0.573,1.387c-0.178,0.311-0.149,0.695,0.07,0.979c0.197,0.258,0.392,0.518,0.582,0.771
				c0.026,0.039,0.022,0.092-0.011,0.127l-1.071,1.07c-0.034,0.033-0.088,0.037-0.126,0.012c-0.254-0.189-0.515-0.385-0.771-0.582
				c-0.284-0.221-0.668-0.248-0.979-0.07c-0.436,0.246-0.902,0.441-1.387,0.572c-0.345,0.096-0.596,0.389-0.643,0.742
				c-0.042,0.324-0.088,0.646-0.135,0.959c-0.005,0.045-0.048,0.08-0.096,0.08H8.242c-0.047,0-0.089-0.035-0.096-0.08
				c-0.046-0.313-0.092-0.635-0.133-0.959c-0.046-0.354-0.299-0.646-0.644-0.74c-0.483-0.133-0.951-0.328-1.386-0.574
				c-0.136-0.078-0.287-0.117-0.437-0.117c-0.192,0-0.383,0.064-0.543,0.188c-0.257,0.197-0.517,0.393-0.771,0.582
				c-0.039,0.025-0.092,0.021-0.126-0.012l-1.07-1.07c-0.035-0.035-0.039-0.088-0.011-0.127c0.188-0.254,0.385-0.514,0.582-0.771
				c0.219-0.283,0.247-0.668,0.071-0.979c-0.249-0.436-0.442-0.902-0.576-1.387C3.008,10.34,2.716,10.09,2.36,10.043
				c-0.321-0.041-0.643-0.088-0.957-0.135C1.357,9.902,1.322,9.861,1.322,9.813V8.298c0-0.047,0.035-0.089,0.082-0.096
				C1.717,8.155,2.039,8.11,2.36,8.068c0.356-0.047,0.647-0.299,0.742-0.644c0.133-0.483,0.327-0.949,0.576-1.386
				c0.176-0.311,0.148-0.695-0.071-0.98C3.41,4.802,3.214,4.543,3.025,4.287C2.997,4.249,3.001,4.195,3.036,4.161l1.07-1.07
				C4.14,3.057,4.193,3.052,4.232,3.08c0.254,0.188,0.514,0.385,0.771,0.582c0.285,0.219,0.669,0.247,0.98,0.071
				C6.419,3.484,6.887,3.291,7.37,3.157c0.344-0.094,0.597-0.386,0.644-0.742c0.042-0.322,0.087-0.644,0.133-0.957
				c0.007-0.047,0.049-0.082,0.096-0.082h1.515c0.048,0,0.091,0.035,0.096,0.082c0.047,0.313,0.093,0.635,0.135,0.957
				c0.047,0.356,0.298,0.647,0.643,0.742c0.484,0.133,0.951,0.327,1.387,0.576c0.312,0.176,0.695,0.148,0.979-0.071
				c0.257-0.197,0.518-0.395,0.771-0.582c0.038-0.028,0.092-0.023,0.126,0.011l1.071,1.07c0.033,0.034,0.037,0.088,0.011,0.126
				c-0.189,0.256-0.385,0.515-0.582,0.771c-0.22,0.285-0.248,0.669-0.07,0.98c0.247,0.437,0.442,0.903,0.574,1.386
				c0.095,0.344,0.388,0.597,0.74,0.643c0.325,0.042,0.646,0.087,0.96,0.134c0.045,0.007,0.08,0.049,0.08,0.096V9.813L16.678,9.813z
				"/>
		</g>
	</g>
	<g>
		<g>
			<path fill="#ff6859" d="M9,5.378c-2.028,0-3.677,1.649-3.677,3.677c0,2.025,1.649,3.675,3.677,3.675
				c2.025,0,3.676-1.65,3.676-3.675C12.676,7.027,11.025,5.378,9,5.378z M9,11.941c-1.591,0-2.885-1.295-2.885-2.886
				S7.409,6.169,9,6.169c1.591,0,2.885,1.294,2.885,2.886S10.591,11.941,9,11.941z"/>
		</g>
	</g>
</g>
</svg>
