<?xml version="1.0" encoding="utf-8"?>
<!-- Generator: Adobe Illustrator 16.0.0, SVG Export Plug-In . SVG Version: 6.00 Build 0)  -->
<!DOCTYPE svg PUBLIC "-//W3C//DTD SVG 1.1//EN" "http://www.w3.org/Graphics/SVG/1.1/DTD/svg11.dtd">
<svg version="1.1" id="Capa_1" xmlns="http://www.w3.org/2000/svg" xmlns:xlink="http://www.w3.org/1999/xlink" x="0px" y="0px"
	 width="16px" height="16px" viewBox="0 0 16 16" enable-background="new 0 0 16 16" xml:space="preserve">
<g>
	<path fill="#E76D4E" d="M8,0C3.589,0,0,3.589,0,8s3.589,8,8,8s8-3.589,8-8S12.411,0,8,0z M13.113,13.113
		C11.733,14.492,9.917,15.252,8,15.252s-3.733-0.76-5.113-2.139C1.508,11.733,0.748,9.918,0.748,8s0.76-3.733,2.139-5.113
		C4.267,1.508,6.083,0.748,8,0.748s3.733,0.76,5.113,2.139c1.379,1.38,2.139,3.195,2.139,5.113S14.492,11.733,13.113,13.113z"/>
	<g>
		<path fill="#E76D4E" d="M7.542,9.936C7.539,9.814,7.537,9.725,7.537,9.664c0-0.356,0.051-0.663,0.151-0.922
			c0.074-0.194,0.193-0.391,0.357-0.589C8.166,8.01,8.383,7.799,8.697,7.521c0.314-0.276,0.518-0.497,0.612-0.662
			C9.403,6.695,9.45,6.516,9.45,6.321c0-0.353-0.138-0.662-0.413-0.929c-0.275-0.268-0.613-0.4-1.012-0.4
			c-0.386,0-0.708,0.121-0.967,0.362S6.631,5.974,6.55,6.487l-0.932-0.11c0.084-0.688,0.333-1.216,0.748-1.581
			C6.781,4.43,7.329,4.247,8.01,4.247c0.721,0,1.297,0.196,1.727,0.589s0.645,0.867,0.645,1.425c0,0.322-0.076,0.619-0.227,0.891
			c-0.151,0.272-0.447,0.603-0.886,0.992C8.973,8.405,8.78,8.599,8.689,8.723C8.599,8.847,8.532,8.989,8.488,9.15
			S8.419,9.573,8.413,9.936H7.542z M7.486,11.753v-1.032h1.032v1.032H7.486z"/>
	</g>
</g>
</svg>
