<?xml version="1.0" encoding="utf-8"?>
<!-- Generator: Adobe Illustrator 16.0.0, SVG Export Plug-In . SVG Version: 6.00 Build 0)  -->
<!DOCTYPE svg PUBLIC "-//W3C//DTD SVG 1.1//EN" "http://www.w3.org/Graphics/SVG/1.1/DTD/svg11.dtd">
<svg version="1.1" id="Capa_1" xmlns="http://www.w3.org/2000/svg" xmlns:xlink="http://www.w3.org/1999/xlink" x="0px" y="0px"
	 width="16px" height="13.683px" viewBox="0 0 16 13.683" enable-background="new 0 0 16 13.683" xml:space="preserve">
<g>
	<g>
		<path fill="#ff6859" d="M12.861,13.683c-0.075,0-0.149-0.026-0.21-0.077l-3.242-2.749H2.225C0.998,10.857,0,9.854,0,8.62V2.236
			C0,1.003,0.998,0,2.225,0h11.551C15.002,0,16,1.003,16,2.236V8.62c0,1.233-0.998,2.237-2.225,2.237h-0.59v2.499
			c0,0.127-0.073,0.243-0.188,0.296C12.954,13.673,12.907,13.683,12.861,13.683z M2.225,0.653c-0.869,0-1.575,0.71-1.575,1.583V8.62
			c0,0.873,0.706,1.583,1.575,1.583h7.303c0.077,0,0.15,0.027,0.209,0.077l2.8,2.374V10.53c0-0.181,0.146-0.327,0.325-0.327h0.914
			c0.869,0,1.575-0.71,1.575-1.583V2.236c0-0.873-0.706-1.583-1.575-1.583H2.225z"/>
	</g>
	<g>
		<g>
			<path fill="#ff6859" d="M13.23,3.657H2.77c-0.179,0-0.324-0.146-0.324-0.327S2.591,3.003,2.77,3.003h10.46
				c0.18,0,0.325,0.146,0.325,0.327S13.409,3.657,13.23,3.657z"/>
		</g>
		<g>
			<path fill="#ff6859" d="M13.23,5.748H2.77c-0.179,0-0.324-0.146-0.324-0.327c0-0.18,0.146-0.326,0.324-0.326h10.46
				c0.18,0,0.325,0.146,0.325,0.326C13.555,5.602,13.409,5.748,13.23,5.748z"/>
		</g>
		<g>
			<path fill="#ff6859" d="M13.23,7.838H2.77c-0.179,0-0.324-0.146-0.324-0.326c0-0.181,0.146-0.327,0.324-0.327h10.46
				c0.18,0,0.325,0.146,0.325,0.327C13.555,7.692,13.409,7.838,13.23,7.838z"/>
		</g>
	</g>
</g>
</svg>
