<?xml version="1.0" encoding="utf-8"?>
<!-- Generator: Adobe Illustrator 16.0.0, SVG Export Plug-In . SVG Version: 6.00 Build 0)  -->
<!DOCTYPE svg PUBLIC "-//W3C//DTD SVG 1.1//EN" "http://www.w3.org/Graphics/SVG/1.1/DTD/svg11.dtd">
<svg version="1.1" id="Capa_1" xmlns="http://www.w3.org/2000/svg" xmlns:xlink="http://www.w3.org/1999/xlink" x="0px" y="0px"
	 width="14.231px" height="35px" viewBox="0 0 14.231 35" enable-background="new 0 0 14.231 35" xml:space="preserve">
<g>
	<g>
		<path fill="#767741" d="M13.786,12.303h-3.329V11.76c0-0.971-0.79-1.76-1.76-1.76H5.533c-0.971,0-1.76,0.79-1.76,1.76v0.543H0.444
			C0.197,12.303,0,12.5,0,12.747s0.197,0.444,0.444,0.444h0.803v10.434C1.247,24.936,2.313,26,3.622,26h6.987
			c1.309,0,2.375-1.066,2.375-2.375V13.191h0.803c0.247,0,0.444-0.197,0.444-0.444C14.23,12.5,14.033,12.303,13.786,12.303z
			 M4.661,11.76c0-0.48,0.393-0.871,0.872-0.871h3.164c0.48,0,0.872,0.391,0.872,0.871v0.543H4.661V11.76z M12.097,23.625
			c0,0.82-0.668,1.486-1.487,1.486H3.622c-0.818,0-1.487-0.666-1.487-1.486V13.191H12.1v10.434H12.097z"/>
		<path fill="#767741" d="M7.115,23.52c0.247,0,0.444-0.197,0.444-0.443v-7.85c0-0.246-0.197-0.443-0.444-0.443
			s-0.444,0.197-0.444,0.443v7.846C6.671,23.318,6.868,23.52,7.115,23.52z"/>
		<path fill="#767741" d="M4.217,23.029c0.247,0,0.444-0.197,0.444-0.443v-6.872c0-0.247-0.197-0.444-0.444-0.444
			c-0.246,0-0.443,0.198-0.443,0.444v6.872C3.773,22.832,3.975,23.029,4.217,23.029z"/>
		<path fill="#767741" d="M10.014,23.029c0.246,0,0.443-0.197,0.443-0.443v-6.872c0-0.247-0.197-0.444-0.443-0.444
			c-0.247,0-0.444,0.197-0.444,0.444v6.872C9.569,22.832,9.767,23.029,10.014,23.029z"/>
	</g>
</g>
</svg>
