<?xml version="1.0" encoding="utf-8"?>
<!-- Generator: Adobe Illustrator 16.0.0, SVG Export Plug-In . SVG Version: 6.00 Build 0)  -->
<!DOCTYPE svg PUBLIC "-//W3C//DTD SVG 1.1//EN" "http://www.w3.org/Graphics/SVG/1.1/DTD/svg11.dtd">
<svg version="1.1" id="Capa_1" xmlns="http://www.w3.org/2000/svg" xmlns:xlink="http://www.w3.org/1999/xlink" x="0px" y="0px"
	 width="15px" height="16.406px" viewBox="0 0 15 16.406" enable-background="new 0 0 15 16.406" xml:space="preserve">
<g>
	<g>
		<path fill="#ff6859" d="M3.054,3.253c2.422-2.191,6.047-2.224,8.502-0.224L9.61,3.103C9.359,3.113,9.165,3.32,9.175,3.572
			c0.011,0.245,0.212,0.436,0.452,0.436c0.007,0,0.01,0,0.018,0l2.988-0.11c0.244-0.01,0.436-0.208,0.436-0.453V3.411
			c0-0.007,0-0.01,0-0.017V3.391l0,0l-0.111-2.955C12.947,0.185,12.736-0.009,12.488,0c-0.251,0.01-0.445,0.218-0.436,0.469
			l0.07,1.853C10.907,1.327,9.41,0.751,7.808,0.67c-1.983-0.1-3.889,0.58-5.36,1.913C0.425,4.416-0.433,7.203,0.21,9.856
			c0.05,0.208,0.235,0.346,0.439,0.346c0.037,0,0.07-0.004,0.107-0.014c0.241-0.061,0.392-0.305,0.332-0.547
			C0.525,7.311,1.275,4.861,3.054,3.253z"/>
		<path fill="#ff6859" d="M14.79,6.55c-0.061-0.241-0.306-0.392-0.546-0.332c-0.242,0.061-0.393,0.305-0.332,0.546
			c0.566,2.332-0.188,4.78-1.967,6.389c-1.25,1.129-2.817,1.686-4.378,1.686c-1.491,0-2.978-0.506-4.177-1.505l1.97-0.178
			c0.248-0.023,0.432-0.241,0.409-0.492s-0.241-0.433-0.493-0.409l-2.978,0.269c-0.248,0.023-0.432,0.241-0.409,0.492l0.268,2.979
			c0.02,0.234,0.218,0.412,0.449,0.412c0.014,0,0.027,0,0.04-0.003c0.248-0.023,0.433-0.242,0.409-0.493l-0.161-1.813
			c1.216,0.985,2.707,1.558,4.298,1.638c0.127,0.008,0.254,0.011,0.378,0.011c1.846,0,3.602-0.677,4.982-1.923
			C14.575,11.991,15.434,9.206,14.79,6.55z"/>
	</g>
</g>
</svg>
