<?xml version="1.0" encoding="utf-8"?>
<!-- Generator: Adobe Illustrator 16.0.0, SVG Export Plug-In . SVG Version: 6.00 Build 0)  -->
<!DOCTYPE svg PUBLIC "-//W3C//DTD SVG 1.1//EN" "http://www.w3.org/Graphics/SVG/1.1/DTD/svg11.dtd">
<svg version="1.1" id="Capa_1" xmlns="http://www.w3.org/2000/svg" xmlns:xlink="http://www.w3.org/1999/xlink" x="0px" y="0px"
	 width="124.962px" height="63.746px" viewBox="0 0 124.962 63.746" enable-background="new 0 0 124.962 63.746"
	 xml:space="preserve">
<g>
	<g>
		<path fill="#00aae4" d="M68.589,7.725v56.022h-8.524V7.725h-8.168V0h24.859v7.725H68.589z"/>
		<path fill="#00aae4" d="M81.638,63.747V0h8.523v63.747H81.638z"/>
		<path fill="#00aae4" d="M98.15,63.747V0h14.826c7.992,0,11.985,4.085,11.985,12.252v42.263c0,6.154-3.403,9.232-10.209,9.232
			H98.15z M106.674,56.022h6.395c2.248,0,3.371-0.945,3.371-2.84V12.341c0-3.078-1.273-4.616-3.817-4.616h-5.948V56.022z"/>
	</g>
	<g>
		<path fill="#ff6859" d="M36.693,36.5c0,5.826-0.031,11.62-0.151,17.321c-11.237-0.086-22.82,0.174-33.842-0.129
			c0-2.693,0-5.387,0-8.078c-0.725-0.393-1.378-0.932-1.938-1.535c0,3.222,0,6.428,0,9.613c0,2.741-0.369,5.324,0.258,6.975
			c1.328,3.49,5.3,2.97,10.204,2.97c6.229,0,10.268,0,16.278,0c2.648,0,6.254,0.372,8.007-0.257
			c3.326-1.195,2.972-4.647,2.972-9.301c0-6.818,0-13.306,0-19.71c-0.007,0.007-0.013,0.013-0.02,0.022
			C37.866,35.101,37.278,35.804,36.693,36.5z M16.649,58.728c0-2.005,1.38-3.166,3.876-2.969c1.327,0.721,2.195,1.426,2.195,2.969
			C22.721,62.36,16.649,62.849,16.649,58.728z"/>
		<path fill="#ff6859" d="M2.313,28.793c0.129-0.142,0.257-0.284,0.387-0.426c0-6.026,0-12.052,0-18.078
			c-0.011-0.185-0.022-0.366,0.128-0.388c11.281,0,22.563,0,33.844,0c-0.012,1.975-0.017,3.957-0.018,5.942
			c0.612,0.13,1.243,0.294,1.828,0.534c0-2.14,0-4.297,0-6.477c0-1.982,0.315-5.309-0.389-6.976
			c-1.385-3.293-4.771-2.841-9.558-2.841c-5.667,0-10.466,0-15.761,0c-2.435,0-6.025-0.257-8.137,0.128
			C0.143,1.037,0.762,5.09,0.762,10.29c0,6.67,0,13.397,0,20.111c0.272-0.306,0.562-0.599,0.849-0.883
			C1.859,29.27,2.094,29.035,2.313,28.793z M15.358,3.96c1.636,0,3.189,0,5.167,0c1.429,0,4.042-0.479,4.134,0.906
			c0.109,1.656-2.969,1.161-4.651,1.161c-2.076,0-4.226,0.307-5.167-0.517C14.459,4.896,14.873,4.12,15.358,3.96z"/>
		<path fill-rule="evenodd" clip-rule="evenodd" fill="#ff6859" d="M22.015,46.577c4.713-5.334,9.165-10.935,13.732-16.417
			c-0.33-2.155-0.273-5.265,1.764-5.216c0.433,0.009,1.074,0.364,1.305,0.996c0.245,0.672-0.22,1.442-0.23,2.532
			c-0.006,0.71,0.357,1.658,0.307,2.149c-0.095,0.939-1.082,1.868-1.764,2.684c-4.048,4.841-7.792,9.253-11.968,14.349
			c-0.564,0.688-1.441,2.029-2.226,2.15c-0.791,0.115-1.718-0.375-2.532-0.618c-4.01-1.19-7.998-2.372-11.892-3.528
			c-1.482-0.441-3.269-0.703-4.756-1.382c-1.377-0.622-2.681-2.171-3.222-3.528c-1.121-2.805-0.306-6.477,0.92-8.515
			c0.468-0.779,1.329-1.484,2.073-2.302c4.131-4.552,8.099-9.148,12.35-13.887c0.659-0.735,1.827-2.262,2.532-2.302
			c1.723-0.095,3.939,0.72,5.525,1.074c3.648,0.816,6.871,1.53,10.816,2.378c1.598,0.343,4.271,0.624,4.374,2.148
			c0.073,1.098-1.256,2.161-1.843,2.839c-4.405,5.107-8.548,9.888-13.041,15.036c-0.759,0.872-1.517,2.045-2.38,2.227
			c-1.049,0.219-3.387-0.691-4.448-0.998c-3.129-0.901-5.511-1.643-8.669-2.532c-1.272-0.356-3.306-1.238-4.528-0.845
			c-1.359,0.443-1.437,3.113-0.842,4.528c0.254,0.608,0.927,1.669,1.611,1.917c2.624,0.957,5.598,1.676,8.515,2.533
			C16.369,44.889,19.277,45.718,22.015,46.577z M27.844,21.95c-2.85-0.712-6.453-1.734-9.13-2.223
			c-1.675-0.308-2.526,1.229-3.145,2.378c0.625,0.727,1.82,0.722,2.915,0.997c2.054,0.517,4.244,1.084,6.367,1.611
			c1.307,0.324,2.942,0.878,3.837,0.536c0.888-0.339,1.462-1.448,1.918-2.301C29.969,22.262,28.869,22.208,27.844,21.95z"/>
	</g>
</g>
</svg>
