<?xml version="1.0" encoding="utf-8"?>
<!-- Generator: Adobe Illustrator 16.0.0, SVG Export Plug-In . SVG Version: 6.00 Build 0)  -->
<!DOCTYPE svg PUBLIC "-//W3C//DTD SVG 1.1//EN" "http://www.w3.org/Graphics/SVG/1.1/DTD/svg11.dtd">
<svg version="1.1" id="Capa_1" xmlns="http://www.w3.org/2000/svg" xmlns:xlink="http://www.w3.org/1999/xlink" x="0px" y="0px"
	 width="40px" height="19px" viewBox="0 0 40 19" enable-background="new 0 0 40 19" xml:space="preserve">
<g>
	<polygon fill-rule="evenodd" clip-rule="evenodd" fill="#FFFFFF" points="8.104,0.44 0,0.44 0.04,4.288 1.584,4.288 1.604,14.684 
		0.04,14.684 0,18.581 8.104,18.531 8.104,14.684 6.439,14.684 6.419,4.288 8.123,4.288 	"/>
	<polygon fill-rule="evenodd" clip-rule="evenodd" fill="#FFFFFF" points="20.423,5.873 24.698,5.922 24.729,0.42 11.104,0.44 
		11.084,4.288 12.768,4.288 12.808,14.684 11.064,14.724 11.064,18.501 24.698,18.501 24.679,12.8 20.403,12.779 20.423,14.684 
		17.443,14.684 17.473,11.604 21.679,11.534 21.628,7.368 17.473,7.438 17.443,4.288 20.403,4.288 	"/>
	<path fill-rule="evenodd" clip-rule="evenodd" fill="#FFFFFF" d="M39.659,14.794c0,0,0.808-2.063-0.448-4.146
		c0,0-0.917-1.625-3.22-2.712c0,0-2.242-0.678-3.118-1.066c0,0-1.814-1.694,0.249-2.761c0,0,1.744-0.768,2.62,1.814l3.689-0.05
		L39.41,0.42h-3.308l-0.319,0.857c0,0-1.855-1.654-4.405-0.837c0,0-2.623,0.638-3.609,3.737c0,0-0.876,2.761,1.186,5.024
		c0,0,1.795,1.386,3.29,2.013c0,0,1.974,0.708,2.552,1.207c0.987,0.807,0.499,2.262-0.38,2.44c0,0-2.411,0.639-2.799-2.063H27.64
		v5.701l2.93,0.08l0.738-0.888c0,0,0.876,0.808,2.371,1.017c0,0,2.242,0.569,3.737-0.627C37.416,18.083,38.854,17.375,39.659,14.794
		z"/>
</g>
</svg>
