<?xml version="1.0" encoding="utf-8"?>
<!-- Generator: Adobe Illustrator 16.0.0, SVG Export Plug-In . SVG Version: 6.00 Build 0)  -->
<!DOCTYPE svg PUBLIC "-//W3C//DTD SVG 1.1//EN" "http://www.w3.org/Graphics/SVG/1.1/DTD/svg11.dtd">
<svg version="1.1" id="Capa_1" xmlns="http://www.w3.org/2000/svg" xmlns:xlink="http://www.w3.org/1999/xlink" x="0px" y="0px"
	 width="16px" height="14.071px" viewBox="0 0 16 14.071" enable-background="new 0 0 16 14.071" xml:space="preserve">
<g>
	<path fill="#ff6859" d="M8,4.612c-0.193,0-0.351,0.157-0.351,0.35v4.45c0,0.193,0.157,0.35,0.351,0.35
		c0.192,0,0.35-0.157,0.35-0.35v-4.45C8.35,4.769,8.192,4.612,8,4.612z"/>
	<g>
		<g>
			<path fill="#ff6859" d="M15.893,12.871L8.692,0.4C8.55,0.153,8.285,0,8,0C7.714,0,7.45,0.153,7.307,0.4L0.107,12.871
				c-0.144,0.248-0.144,0.553,0,0.8c0.143,0.248,0.406,0.4,0.692,0.4h14.4c0.285,0,0.55-0.152,0.692-0.4
				S16.035,13.118,15.893,12.871z M0.8,13.271L8,0.8l7.2,12.471H0.8z"/>
		</g>
	</g>
	<g>
		<g>
			<circle fill="#ff6859" cx="8" cy="11.018" r="0.556"/>
		</g>
	</g>
</g>
</svg>
