<?xml version="1.0" encoding="utf-8"?>
<!-- Generator: Adobe Illustrator 16.0.0, SVG Export Plug-In . SVG Version: 6.00 Build 0)  -->
<!DOCTYPE svg PUBLIC "-//W3C//DTD SVG 1.1//EN" "http://www.w3.org/Graphics/SVG/1.1/DTD/svg11.dtd">
<svg version="1.1" id="Capa_1" xmlns="http://www.w3.org/2000/svg" xmlns:xlink="http://www.w3.org/1999/xlink" x="0px" y="0px" width="16.157px" height="12.07px" viewBox="0 0 16.157 12.07" enable-background="new 0 0 16.157 12.07" xml:space="preserve">
<g>
<path fill="#333" d="M13.616,0H11v12.07h2.616c0.878,0,1.505-0.213,1.917-0.654c0.415-0.446,0.624-1.139,0.624-2.058V2.71
c0-0.919-0.209-1.61-0.624-2.056C15.121,0.215,14.494,0,13.616,0z M15.167,9.453c0,0.596-0.134,1.033-0.409,1.338
c-0.198,0.219-0.564,0.479-1.18,0.479h-1.59V0.802h1.59c0.615,0,0.979,0.258,1.18,0.477c0.275,0.307,0.409,0.745,0.409,1.338V9.453
L15.167,9.453z"></path>
<rect x="6.829" fill="#333" width="0.989" height="12.07"></rect>
<polygon fill="#333" points="2.16,12.07 3.149,12.07 3.149,0.802 5.309,0.802 5.309,0 0,0 0,0.802 2.16,0.802   "></polygon>
</g>
</svg>